<mxfile host="app.diagrams.net" agent="Mozilla/5.0 (Windows NT 10.0; Win64; x64; rv:133.0) Gecko/20100101 Firefox/133.0" version="25.0.3">
  <diagram name="Page-1" id="ocwEoPcCcs32yh4M4_MI">
    <mxGraphModel dx="724" dy="366" grid="1" gridSize="10" guides="1" tooltips="1" connect="1" arrows="1" fold="1" page="1" pageScale="1" pageWidth="850" pageHeight="1100" math="0" shadow="0">
      <root>
        <mxCell id="0" />
        <mxCell id="1" parent="0" />
        <mxCell id="jAecdOC79fy6qDDTXw9E-1" value="" style="shape=image;verticalLabelPosition=bottom;labelBackgroundColor=default;verticalAlign=top;aspect=fixed;imageAspect=0;image=data:image/png,iVBORw0KGgoAAAANSUhEUgAAAlEAAABoCAYAAADRlqWSAAAgAElEQVR4Xu3dCdh11fg/8O1nTIRmlZkoESFCk4pEgwZJUYoyNRClokkSmZJSGlQqJJRKg0Y0J1OFVKZQSTJkHn4++/e/3/9+d2fY5zznnOec89zrut7rfd/n2cNa37X2Wt9139/7Xvf5z39LkSURSAQSgUQgEUgEEoFEoCcE7pMkqie88uJEIBFIBBKBRCARSARKBJJE5UBIBBKBRCARSAQSgUSgDwSSRPUBWt6SCCQCiUAikAgkAolAkqgcA4lAIpAIJAKJQCKQCPSBQJKoPkDLWxKBRCARSAQSgUQgEUgSlWMgEUgEEoFEIBFIBBKBPhBIEtUHaHlLIpAIJAKJQCKQCCQCSaJyDCQCiUAikAgkAolAItAHAkmi+gAtb0kEEoFEIBFIBBKBRCBJVI6BRCARSAQSgUQgEUgE+kAgSVQfoOUtiUAikAgkAolAIpAIJInKMZAIJAKJQCKQCCQCiUAfCCSJ6gO0vCURSAQSgUQgEUgEEoEkUTkGEoFEIBFIBBKBRCAR6AOBJFF9gJa3JAKJQCKQCCQCiUAikCQqx0AikAgkAolAIpAIJAJ9IJAkqg/Q8pZEIBFIBBKBRCARSASSROUYSAQ6IPCf//ynuM997jPfFa1+liAmAu0Q+Pe//138z//8T3HDDTcUG264YfGpT32qWHPNNYv4+TgiF2M86nz00UcXq6+++ljXeRxxzDpNPwJJoqa/j7OFM0Tg0ksvLc4888ziYQ97WLkILrfccjN8Yt4+VxCokhHEaZNNNik+8YlPlMS8Ts7HDZOo+zve8Y7i4x//eHHeeecVa6yxRhKpceuorM+sIpAkalbhH8zLTXZ2ta1Kp4l6EibywSDU+1NiAXnLW95SHH744cULXvCC4qc//Wlx1113FWeccUax1lpr5WLSO6xz6o4YQ7/+9a+LZz3rWcVjH/vY4rLLLpsoDKIN6667bnHJJZcU1157bbmJSGvsRHVjVnaICCSJGiK4k/Bo5CvJ1Pw9FW6WQw89tNhpp52KzTffvDjggAOKl73sZcWPf/zjYuONNy5OPfXUJFGTMMBnsY4xjl760pcW5557bjl2nvCEJ0wUAQmydPvttxcrrbRS8YhHPKK4/PLLi4c85CFjb0mbxa7PV88hBJJETUFn/+IXvyi+/e1vl7oLk54/yn3ve99igQUWaDnZLbroosWjHvWo4uEPf3h57TjrM2aji373u98VT3va0wpWhC9/+cvln+OOO66syjbbbFN8+tOfTsxmo2Mm5J3xPX3xi18sNt100+I973lPsf/++0/kmPnXv/5VziVcejvvvPNEt2VChk9Wc4IQSBI1QZ1Vr2pM1FtuuWVx8skn99ySJZdcsthggw2KHXfcsVhhhRUmcoLvudFdbghMTzzxxOI1r3lNcb/73a/43ve+V3z3u98t3vnOdxbLLrtsQWT7uMc9bqIsCoPGKZ/XHYF77rmnWHHFFYvf/va3xS233DJvwzLuWqh6y2JTph1PfepTC+267rrrSvdkuvW6j4O8YroRSBI1Bf37k5/8pLjzzjuL3//+98Xuu+9efOc73ylbtdVWWxU77LBDcf/737+0UkW5+eabi7PPPrtAFP75z3+WgmkRQ6985SvnPJEKEvW6172uOP7444tHPvKRxQ9+8INioYUWKvVQCy+88BSMmGzCMBGIMXTEEUcUb3rTm8pNCivOJFt7o+7vfve7i/e9733FnnvuWf49yW0a5hjIZ88dBJJETVlfc0Fdf/31ZauuvPLK4jnPeU7bFn7/+98vXvva15aki7meYJp+Y65PjIjls5/97NIC9cIXvrD4+te/Ph8mufse3UcT7umwhrDiVDcE7WpSvS80f00tQMZ/tY/DTe5dTZ/xj3/8o3juc59bWjAvvvjiYtVVV+3ru4p2zLZuMfBggXrGM55Rbi6kP3joQx86usGQb0oExhCBJFFj2Cm9VolmwSSLFCFNJvClllqq+OEPf1gsuOCC93pcTMxcVaxS7qEB4qIy6c/FibG6SP/85z8v3Zt//OMfSw3Ixz72sXk6s6aLaK99mNfPj0C3gId2RDYiVW0K6iXGfTsS1m7z0AtpjmdcffXVxcorr1wsscQS5XcY2sMm/Rwkrt6GiMBtQiKbvKefa7jybNRYv88///yMUu0HxLxnqhBIEjUF3RnCz2OPPbbYbrvtSkJF63Taaad11CywuCBS4bqyWBBME07HM6cAnp6bwNUpEk855phjSnzmMh49AzjDG6pk5mc/+1lp8aDHedCDHlRGt9EZhXWoSmqrZOfuu+8ugy0EXSAw7nnMYx5T1qwVWYp79fNVV11V3HTTTaUbfPnlly+e/vSnlxsUv2OF6VRinHzoQx8qdtttt3IcsfA2JWLVuv39738v6/+3v/2tWHzxxQvBIEr9WbGJGja5iveKVv3CF75QagQ/8IEP5Lcxw/Get082AkmiJrv/5lsUCKFPOumkcpL96Ec/Wuyyyy4dJziTr4mXHuqNb3xjSb5MkJ/97Gf7cj1MIpSxMGy77bal205hgbrjjjvKf1uAhXVbyFgVJByMxWwS2zvuda5m995nn33KVBIKTZrxysqK1EhYyV0W/Rd/0wXuvffepZ7NJuHRj350ITyfns3Gwu/kbKqSlbhXPrCPfOQj5Tvc94c//KG0uHgf165v5IMf/GDHbyqeu8UWWxSf//znSyJ10EEH9UQ0uMw+/OEPF+ecc07xl7/8pfxjs8PVDhOWoKakbJD9HQRR3RAoyUMvuOCCQb4in5UITBwCSaImrstaV9iu1WT/ox/9qNQ30UNZLDpNtjHhi+wT4YdEcUFcccUVU4JKs2bAaL/99ivdLqwdF154YXHrrbeW/7bwskhYxEQj7bHHHsUDHvCAZg/Oq3pCIMbq6aefXlpDWZMkO+VSpcH505/+VKy//vrFNddcU/bFt771rVLoH+MY4ZHDi8Zv3333Ld761rcWiyyySBlwgYy9/e1vL8kMgiVzeNU9xqLyrne9qyQ97pUaRBFUgBBxcx944IFl/3fTDCJhvj1k6Mgjjyze8IY3dL0ngArhNuKuHixZcGFlfv/731+2F3FhEQtSI0AEyWeFHia5inZz4734xS8uFltssXK+6cVV2dOAyIsTgQlAIEnUBHRSpyrGpGlBed7znldOrI9//ONL90MsBO3uj0nxsMMOKxccBRGTlbiVpmTCoWpc/dVWW634xje+UWrFuHbGoYyDHqYpDjGuelnQ41rk39Eif/3rXwvHjRx88MHzXoskGdsILSsTwXac58Zq5N8sRmGFrdeXe2+VVVYpicZFF11UPP/5zy8voQdkeXrgAx9YRrkqYaW1sUCovReBQra7aac8g/tQjjGEp8k5edrDkvy5z32u/AZZoRDHatl+++2Lo446qrRE2ej4vtUTmRFZi7AN0+0c7XYMkoALVmxEMTOYN/0y8rppRCBJ1IT3akyan/zkJ4s3v/nNpTWpaUbtuNfu1y7b4mIHTRQ71wTUoSu57bbbimc+85nFb37zm2LrrbcuLQAWuNCbzGVy2cun8uc//7l48IMf3PgWYw/Ojtcx/rhMaaFYkmLxZm151ateVWqMEKCvfOUrpavVWLUJsBkQHCE6FSFSot9C//fyl7+8OOuss0qCzH3L2ogIICYsKkicXGBRWJVYIp/ylKeUVslu7jz3IV2uJ8JGwr2rHfEKAb2x9pnPfKZsjzo86UlPKt2KCGMQOsQeIYNVaPW4lx3JYtMkGKIX4tq4c/7fhfFs/cISBlOZ2NdZZ53GlrZe35nXJwLjjkCSqHHvoS71q4s9/Z+2Q36aprvS9dZbr8wbZTFae+21S93PMCfjcYQ8Fjlnm7FEwU5UHldSUxyH2S6WE4sqN8q4FmMGVqw1LCoWWrmSEKFOJbDnRnUmoXGI7CBJrUTULEpIiqNHgrRENKUFnRWnXoKIcJG9973vLZ/r+dyDojFZU2iPZPGXXVxKAtYnBEpxZAvLzzLLLNO2KVWSISmle1mI22mY6u50hG/XXXdtS9QQe8/yt3oLHLFhcqYj6/Govll4wZ+1UEb2V7ziFWPxjYzrd5H1mm4EkkRNQf/aoVtERBTR69j9cic0mVQtHCKQREEpdvQSA44DcRhl10R7uUQIiC1oFvVwFw078qlVW6P/uIcs3iLTWFma9OsosfOuIASsOzCLgrQQQ3fSEQX2rguCE668JvcJhHj1q19dvpK2j0aofl9YokL7hKgJvCAkV+iWZKKPgqBJE8K15tmIQrdSxYBLUnoR5IZVqV2fsVaxfEo1wuqEICJ0St0a7DtnKWYJQjYR1Cc+8YkjSzUQbaBVY61D5mDPOthNJ9YNu/x9IjCpCCSJmtSeqyxc3B/0UCY5O2ATd+yg2zUvJj0uApYXbiqLGVcHy9RcmxSjvSx4iBQBL32NhbRbgbs/VaLl/60Wwm7Pqv7ewq9fvvrVr5aWGYchs46pa9Wt2EkvVV+8u/VrPEs9eiGO8VwEXtRcFKH+rCud3hu/I4yWYkOdIyt2KzIfLrDAgYuNKNx93GLOOKzfF/+vkijWHCJ2z0FmiNi51FoV34TIV9n927m6A2tarRe96EWlOxMpakWios00U6y/nokgwa/T8wV+ENbDmCvSGPnmN7/ZkqTFuGyXqLPXsRG4IFHaJO2EVAdE+nNt09XLd5zXTjcCAyNR1UWj20Q93ZCOrnWt9FAWkSaH48a9BxxwQBn2bcHkdhGhRpcxF4sxzIqCWFrQiHdZBzqV+lgfBHmqv084ubByblYLbpT6IjgTC1WrRbDftkg/gIzI+o5ENQ1wYA2i9fHeOFak3eIMd3/0j6i1vfbaq7yP1QjZqfdLKxIVOZyqeMPYYdMItMgzRCGKNBhRv1ZEJ95J02RTwypsg8Oa1a4+8f2p+9ve9rbSMtZp/iSMNy5pvtQBobJx6jYWZjI26uON+5A7j2UMCUQYc86fizNmtrncKP/34/q/LfOASn5MAwKywWNiYrQTNPH7v/BtR7l02xm6lqYBWUCc/J8rhch8rvahHbYFSVQVDFk0OmER+HNrSIq40korzes1/4evHXs/RVi+erA4yd1lUbfAL7300mXixSC6otIsZN7DpVst6u73EYLu/65FbqpEOdphUUQA5MjiOuRmGkWJsWr8cempTxCWJmNRPiYuJYV1qZWWqpU7z7mSAjLkBUNGRJxVLbjcqFy6XJJSHYQIHTatSEn8jH7KOPLOyy+/vLQa1dsR/xcMwi3n3hNOOKGM0GvXZtdwE3KZ2vQgXDR7rYg8gqX+NgTc9U9+8pPn60p1Y31jWVOkSGFBI+xvdcqBa6J9xqKx4f9IYrdUKqMYQ/mORGC2EJgxiapOHNwNv/zlL0u3w+tf//rZatOceq/cOSZsi7bdqRw5JsxOO8+YdEU5iTgy4XJbyYXTTQQ8jeAGVgiEqC/4WKBYBtqR0bgH0bIYW4TcywoCQy5S4fksR02IQOAa10rQKAkqEkUvo29FnhGXCxwgoL7xxhtL/RYxNCE3QoB8BGHwHXJXcSlxTwrR91xuK9aiatu4MNUXQRAZZ/FHCtWh10OXow1N2x1YEvVbxI1HRM//tb+V1UfbkVRWHno+f/sW1NnCXi9RF5o/+HmnjcdGG21UutAQHe+LSLpqLjD4syyxSoU1sFPbkGr1EekZR6O0cy/qCyTK8xAeRK7Vtxv3S7hJOE/0HlGIURc4xb1c+vJi0dJ96UtfKhN/IpjxHMSctgp5NLa4UkWi7r///qWwvlX74tnch4T3rIA2YO1I5TTOFdmmRKCOwIxJVHyUdlAEnYod2y233HKvPCcJ/+AQiEmOad/Eqx9M3BbMTlqWMDy63w5SaLQiVNmCPwiz/+BaOZonBZbVY3M65feJ6y2QFrUNN9ywtPbIn8OSYRGlAyKO7hdPFqTQqLGKEUFzuyJISI0FU7i7hTKIMBKnDgpCIcO6a7ml6HMOOeSQ8jnuY2GJbzdE1aecckqx2WablfcjDkTLor9EYPXbjqY96Pn+qBtLi/YhC6IREVS4xjWIFeK41VZbla48ZccddyyJoXMfjWlHvISmLO5zHZLkG2G1Q5rhgjD6hpBm7sdILeA+z0Cowo0WqQQ6kSi40i55j7QLdHbtLFHcgzac2otERR6r+IarBEk/cp2xUGo/osSiWP/epZfglj700ENLKxRrkzxSiJTyq1/9qrRoCj5RR++OJJ8sesTirfo76hJpFZBtdZqr7v+mYzuvm24EZkyiqmZpO2HFxIREmcSHPflOd/e0b10sgCLpmPRNhN30UPpKMenSnMQCZHHulERw2jGOMQxHC49FQe6gerLDwCGuP/PMM8vduDw9USz6yAdrR1NLTCd81UkfW7hYn6IQ9LJgIHsWPVFpcZaZay655JLS9ePcP+QwxguLi3YJj1doieQI8w5ExHW+We0K4mDRXnLJJYc6DKquIlY87kwpEpB77stqUVfj1xzjd+6VMNN9rDMhLq9XmNUQHkgR3BAnJUgUIswaVXd9iWBlBaTt8vxO+a+iz+M8SsSMnq2dRVO9ucZY04jeZUxvVdTds2xQWbgcg8MKpC8RYoRG+gPzgDGs/2Vpl3gUoUcOEW6FZWrTTTctMaTJUjf3ibgzlpHRVmM32hBCftYo78mSCMxlBGZMomLy406yyyU6ZDI3iSSBGs7QgmtMcqwQIur8TIh2HJYbgujYhZskY8dq0bR4KnagtCiDWPCH09rRPRUB+trXvla6KuIcvSZvD+sei4LFzGI4CDw9g7UAWfBdyUwdCxldij61cNLEWRgjsaM6c9tZJAUZIBX0Ttw2rE7cjX7P9csayWpD88PaE5Fc3o1EcY2xbvn3INrUCc+YL2DPymROcbwLks/NxyJFsI6U0D2JmAvs1Zv1jJtKbiZ9aR5CDJybxwrDEmdjh1S6N7AMN6K6wVj/+b1nypLOvWVccI363rpZoVjKuEG5ecPq12oujJ8hyKyZ2mcjKp2Cb5XFSP42rlpkS8QiS5o+15/ckd6lTpHzShuMAxZIbjbEUvu4P/1f4eZFtGwCiOsjoSjXptQJQabriWWjvqHBRMqQs2GPiybfYF4zWQhM05iZMYmarK6brtpyNTDrO2DVDpWrISbKVi21GFsQnJXnervQbuHn04XY/K2pWua4z2jLaPrCetDtQ49F2IImKkx+H5i6r11YeRM8Y7GygBOMc9MhFq0WYjodVhKaNhqXeG8QQpYTLp1oC0uDzY6/WT3ooCyarDvV9hKXi8CCC61cqwiwJm3p9Zqog36wQHMxIhOKMYtUqjOiW8Uj/s2NyYXmeBTjPX6O3LK+7L777iVprPY9jQ8ywdrDIuS9RNeu8QeRI3h3f7eNYfyelQhm4U5tpyuL9qoDskjczeJlE6S9+sDZfYhwRDkikjZBLFLcl+qGGNXrhniziiKgYTFyDd0YS6vM6uEt8HOEiwWVLKBdO7kKtcuz52o6lF7HdF4/PwIxtlh4bex6SaXSBEvfbrvgiCb393pNVxIVk02nBwOhuiOsTsbx8/g7njOTRabXRk7T9XarJk9/c8nIj6MQkBKKc1XA2oSLZNnBsjLYdVqQFIuyhWIU1oVJwZ6+hHjYrjy0QZ1IVEwESAzrh0UY+QpR90zaHe/ljqFRqof7+733++4ihxTROAujos8Jjy3cIsVikuKWY0Wg5eKSeslLXlJaWGgZkcBw6/g2/RzRapp3bCbtrd9bxR0pQqhMjNxt2qV0suzE8xAi95uofR9IiVLvV8+mY0OWFIJ1JME3BsPIUt6NQFXb4R3chTSL8O6UBqD6XMTG960PbJCqrkz9oy/9TiSpa7nz6sEgoelihSQYr54l6B7tNNYRt8DCBgwR4+ZstajFdTRURP9Iu3klssYPsv/zWYNDoDpXtMs/Nri3dX9SjCNj0jzLCmsjMIgS3xFZg7FJy+nb7+W77aceXUlUPw/NewaPQAwECxudSK8FqeJaEFJtwW+1mPT6zEm/ntvDjgVR4DKx47dohh6q3ccXPxcaLzqOaJc7Jn5u0Wct4XbiEvHzJpuRcJ/ERIOUSa7JbSOyyu+9j5sq0hkgTqyLdFEsJQrXDesTwmSisqgi156FHPhbobGipwlBc1heuPUiWkvUnoNvu1nlBj0WArNWZxV2q0s7/VGVhLSqbyw4/byzTqAQESRGtKRvjnWsU73b/a5VnerX1v8f7Td+uDBZt8JyxzVLK6dP1YkV1dzAsuVv7v12OcMswjEm53o6lEGP92E8b9jkodc6VwkUV7CN2jCCmViu6Qz94eauRtr2Wucm13clUSZmE68dUbA6DzYx2+X5Y5J3Cnp0WvzNlUDbgGnGgaCRn8TiRRzLzJ6lOQI0ElwtzP0m6uriXLf2eaqf2dHSUVR3rN0WouY1mqwrY2yKmCLMtnBwvdCwICTGq3w93fBhpbCb1wfuC9cNXY5ncKF0Wzi7IUf/wpXGosLiIAcYV06cc2gMSMXAJcsiJVJQYXVEukJU7mcWRpYRz4gDdkNUTlitLVHsDlmpkEPkUpmtXaz+qlq5e6lH3NvE6l1fcHq5t10/ItnGBbcFYsuS1q3+TdvbqX5Bglip6bto37hBldBqceX6ncKqpb8tONx79RL4s5Ah78ZdHA7dbQzn72cXARtC8xuyEvniZqNG8X2ZW7mmjUP6zG7zbK91jfcY80hURKUO+j3VenUlUcz8Ph6dweQdRYfw11ugAVLtoGpD5EEhbIziA+RzJ2gVBTJslthrJ0zz9Z122rPV7k4Wh0HXKcZlWGri3VwZLDx26UTJNCPtPrq4Ryi4xZGbRmSjBVMouQXJrh8RMbaRLMSKfiTcJFWyG4uq9xEU+55iEZTaAGmih6KPYhWy8eBKifrR/agv7RTLB8JFNE7LJPyc4Nz1LAwi81it4vncfn7GJWNys7EhnnataD8ksFvG9kH30bQ8L/pH/+lHWjmktVsS3EG0P8Y5F7X+ZYHmPrGp9bcxyrWLNOlzqTi4pH0DrcZ91JkEgKsk3IPDXJgGgcNcfUb0C9csCzl3tUhXbuXZyAMY49FcxUJufmSFGta3EM81f7HaiyY1boc1XruSqBiIJmS7kEjoFonpmgzUyE/DqsWVIEdJlv4QCCLUy92xE++2C+7lmZN4bXzMDmomAvexEdJy4VlEQnvUzgweH+FFF11Ubhy40JSISOXG40Kzyw9tGsydeo+ghXawFYnyM24WFqd4j4zTrAnupwUSnWUSrNePtYrrUIABImdRNFlJnCi6jhaI0Jwrpn6vyDWCZhOcutJKcfVU0ylMYl+PQ52jny1krIezkZjSuDPn8hhI3UGELgLR35Gs07zMfdtq3MfPjG3WLHoqWqrYIIwDzlmH+REIEsGNLNrTJkn/Cy4QPDAsMtGuH+J9xplNmjkJqRtmPYxbOPDAmJ9tlAVZDKN0JVEhNiWglT/F7lXBJIXD+n273WrknDEh+whZs3x84YIatCp/GADlM4eDQEzOQvVNyj74UZR4L4LBncF9YUx7P5LSjkBV6xbpAvxsEELyXtrdpH69PK96LRdlWIaHOcH1W79Juy/6yvgixmatZ+kcVellrLS7Nn4uGMVGGinjgcjxMape7P090Tes3w4uV0Rtm2eHne+tXtsYP3HQvc0qiUAvY7N3BP5/8EhYoyQDZ20fRulKouKlIlb4GH1IABBCLC9OO5NcdGRk5CVulEV31IvOMEDLZ84cgRgHBNgIDXfYqIuxbIdiVzSTXUpYHFhy2olyfQ9hxW3XzlZ5eTw7tG/ttD1VN228xzv8O57Z7jutu1Nj05QbnMGMxqorQzSsjScXX0TZDeYt7Z9S3bC2GxudXNeezDLJVWwRpp1LAjXsXhvc80kByBcYMqT2mK3CpYwDCGTx72GPofjuWNpZoxiBROxJBzPo0phEeTFToA9JBelAuAFagRGLCg2VxQn7RLqGDdygwcnnDQ+BWNS5eomjaXlGWeo7oRybo0R/br0rxhZdG1Eti2c9z9W4IRLfh4XHZtk32uog5XGr9zDrU90sDfM93Z4dm6aqTCMIclWyUZ/jOlkb4531++OefqQgcS9tHkssa5hNa6Qa6dZOv58J5vHdRRARrag8cYMujUhUVIbIPHQg22yzTbk7abXDjeuZ0OQu4pOM08L76YxBNzqfN/sIxLghUiVY5e4ddYnJaFRWgVG3L983PghUF7BJssZXNxdzcaNRt9RWF3a/86dVSoxhjLxO1uRBrqvRrro1ulcheFwvoMIRYziD0wK6jaNOmLdrZyuCGO+XRFeqkWEdU9SIREVl4hR4A0TIJF1Uux29SAAmRMctCDPsBtwwBl0+c3wRiIWEINoudzZI1PiikzWbRgSGrQMZJmZzcf6uttkaKLUMzeBsRLhF39Jj0tWZL52fKMpdmiA576QZqmqeaBxd7w93lsjf+rmPZDr+uIbrSwBLpCMS2CI5KwOICN/4ea/jTMAMt6JgnE4SoCCoQZSkUdJO/w9XZC/fUFzL+kWKpO36sBdLWJO29kSipCSI4wXoSK655pp7sXADT0ilSD7RHMJoB/EB9gJek4bXO6zpPXndYBAIEsUSJQRVyHWWRCARSATGAYFYs6T3sdFjDJA2BDFxxqCoN0ExImcZCSSoHWbxXu4o3h9kBiFwSLd0FUT/EjBLZ0JIjvBJlyKCXr1E5vmZfHCRL0ywg1x2kR0fkfJMEb6iSKUEcL3iWrnlHBfFNdbLWkzSI1IYifO8Ti7hwNz7yDzknxQ1rNAS6gcuwfr7tW3jjTcutXsSSdf5hqOK8BWnN2hf/UDzmfZbIxIVlYokfl4aaf+x4ShxnQ7gonGAqCMTegF9pg3K+ycDgaolylhJEjUZ/Za1TASmHYHwvEhgy3JibopDqZEm+bSQEz+XK46VhatoEMaCVth6LqLmGBPuMCcrsKawHlmTyWbUg/cH2TC3StfCyCGaEgETQc+CJUdjECOpULoMRlMAABZ4SURBVGjegiyxVNHrIUsSYXqPiFLBYTLUK94viW+3tsaaH4d7S7gtASZLVys+ED+78sory/YgPPVCX837Jc1G1eUoabLoalYrKWJaFSTLMWlE9jMJImr17EYkKhoYp74DUKdoaDTIw5ndiMiYGLlo5KXpBnaTD9IOQIcCyXs9s98SpkLPYV7EzMeV5IWort+2DvK+Qfrc1StIFAJlrMQhs4OsczxrnHAcRvvymYnAOCIw6DljFG2M9cpxSZKkKhZuJCkK91BYdORgQk4ku+22jlTXwm7Xeldcjwg5bYB1ibWprlliJbM+Rtqh6nsQIoeLI11hiaqvyRLr0jo7vYELLSxaVbxZrRAcHqbwQHXq33gH4uf8T+44Fq5WLsHAQnARATo3YpyywTqG6ImktmZssMEGZa6peD4i6VrHyMipV29bPDvayHoYR2YNajz1RKJYlpjF+E4BKFKPKbEaGYBA+b+DKgdBoDSUqdFiC1zkZxCLIjGgbOr9hH3aqQyqTKuoOcSB7XAKEoVA+cP33q0Ycxl63w2l/H0iMLkIRLDHoFrQi+i7ag1h0SFL2XfffcvEpMhFPMscZLFnMGDZYVxoWqxlTTU5YRFjaZF5G5GRIqB6xqZ5lMuMhYf7a7311itdd/6wlrGg0TIjSHRTCES0M/LdxfFA2sDyJpI+2qs/vM/PuRLpo7TXutmJCMba71k77LBDqUlqlyMtnqPuktKSdxCCV7VnToBgHWNI8f4gQkcffXRpOQuNWJ3YRT123HHH8oQUBBBHGWRpRKLihQYA/6ZQXZWVNIuZMZL08RMzq8lIapANikQNssGT8iwfAT9yDLBBEMde2x55j3z0sh0PoxgzjsQYlrDcmOVjj4lnNnAcBm75zERgHBGIOcOiPZtntfWDjbkBeUBWLLYyu7M6hYYmFmi6GrmHbOoRBHNYp7Uu5nBkSE484m8uMsSiCRFBjrijFCcPCNNHIqraniuuuKLULTl9QQkChpC43hyORKl31DX+dhSUOTjWdJnF1cucGdcgMAgLyxsSQ5vUqcT7kTgkjSVNws16qVqsvBenkBJJCYtbpHJQf3nKtEe0n3doM+sUbW2rPqgHxbGmrbzyyv0Mj7b39ESiPIXliVlQw3QQv6rKc8dgw4RnRGGDJlCDtP4EGv3sUgjdDCiLc7fkie1Qj4/R+7FjA7tKlvyeZcaZaISDcVzIQHu+wcNY/exWmJGd2dakT6Mddkw+zvohyfHaIDN0BcYO0t2uxDPs+uDVpN+iro46sKu0K4uPskHT85JEIBHoA4GYMxwj46zHJnOG18R1FmoWD994v3N+zBcOf0ZcmlivY7HlxrOIu8f5mCeddNK8uTmukbbHwq0In5f7q1v4P2uRRI+sWwoyRAzexK1HzmJ+rOqEnLSAQLCqwLruoqqTqKolKrCOa+id5HxUQlcV9YprWaIQv6q2qdPwiGfTZiE8zhh1ll+9xHWML0TuXImsa/q/alUKzwXcufdgwTrl0HUeMhrtVlhWZSMhlq8ett7HEL/XLY1JVIBpYPHBKjvvvHN5LpMiYgG5YqXSYYP2h89EB9UOqHYZoFtdHx1EWCjRqB3LTNvofqZWx+nUB4ABZcD4gPolazMdIAYyEuWEd+nzm0yI0Q47Izu0diTKs4wTJnFneJm42lmJtN/1BIEOx20yKVZN8/zhcZZdWqJmOiry/kSgPQIxZ/ieiZSbzBmeFt+rzRqSElaQfrCO+QJp4Y5rMk/H+61jIsr9X2b5rbbaah5BirbQ31j3WHfMX47B6UaGRNLx4oT2k4bp5JNP7npfPJdFjODaOZn1Ym6zjmhrlLoliLaIJQexrJMoBAqRgjkhOEtN/ZogUVVLVKc2B3mJILN2JCrqSxgf5zG26q+QDCG5OAg8ecFYOzsdIxP1CIvcrFqiqgOI6UxD119//VLkZdA5ZNO/LfxNP5x+PpC8Z7QIdJscZlobO0Uf8LDceUGamkykM21L3p8IJAIzyzI9m/iRpSAZN998cymApuFBfKpzIHLCNVUVWcd5k+3qXrXOc5stvfTSpRenXSRZu+cI1Xf+m6hBh6irpzpHYTWTEDsMDjabQR46WaJovrgZB0migsQFQXPkEYLWbwkMRdfx0IT1jIZKf7TjHFEPh8I7Ykyfun+QpbElKipD4K1CCmCY/0ToYZoU/sMgUAaPd3JxDSo6j3vnwAMPbBty2Qnkfs3MrZ45l4XlPlqicqS8ibAcfk1ceYP8QPJZiUAiMDoErB+DtBb3Ml9wuXGRkVCwet9www3z8j/FIs7TIrjKWZ9kHb24LPtFkeSBDst7o5CTOAmE5c6aLBcUjRVyF65Qf4cmqROJ4llhxXJ9/XzEWPdbaaKa6LlEBhJ+k6y0sqL1iol2RgSfPhK52KmPg4/QronGV4dI89Dru9td3zOJipBFADJjEuFhwLRCkS110Lt+fmTRCQY5wGbykUXdkBfm5vpOY1DA5nM6I1D1VUuilnmicsQkAonAbCJAuhCBU7Js03VGCTLB8iGKTAk9VFPDQVWS0kRKEs9FklheuAJZyNxbJQ7cjo5UEc0mhN86TG4S0XmE3a1IVDyfrtlm1jNJcqpBYVVNlBxR4c6jf+5U4j4kj9tNGgJapgUXXHBGXczyJr2EdAmRs6qTHi2IHgsdt991111X9vEgS2MSFaBEzgodqZM0iksG02s6mAbZgHzWZCKQJGoy+y1rnQhMIwKx2K677rplviWCZYkszVNKeED8nvcFKRGl1iQ/VL94Vb0/tEUInPcjSOrj9+pNH4SkEJsjF5GI0zUIGBJFE8VKtdxyy5XVQZis3f6mp+Lq8m8RdBG9Vr1GglGi/2h3ROe1swIFntxnspQjf4PCi/EGoSQojzN5u2Eskzs3KEF6t8jCbs+q/74xiQpQJMTSCKzdz9Zcc82SsQ+bQM22sLxXYPP6zggkicoRkggkAuOCQKxfJCmsFhZa7rzQOwnwkXyT7pcBga4mXGfDakPUiaVeWD/5jOzodU8PcsKVR8zP2lItIuNESSMxRPCCmOoFQSOp4J3hzmuVAoA7T9Ska+DSNOs3tyedGcIjUnq11VabMVeQo8pzWOCa8A59pw4kI7N27EsVdL5YHYEJYrwGUrrEhvUZTe9zk0RNb99myxKBSUQgDAWi4E488cRS5ysqTUS21CqKnHM0us5p44Fpsoj3i0VYoliJQodMRO0MPaTJHCqptaTRtFpBkpAGp4VYo7nnWKoU6zQ3HNIkzN/xLXIRXnzxxaVRRGFZQ5C4LJEyz9Zm14RVTjoFhx2z7nQ6S68e8Sii0dm73dJBdMJLXZAo+iZRep2eFX0j5xdrGFekqHfWtEGWxpaoeClgdCCBFpbbKtX6ICuYz5pOBGLw22X5M8xjX6YTwWxVIpAIDAMBa9yhhx5aWl5YL7jKaHK5xCLlgTQ/tD4zIQTd6h4kgB7q8MMPLzVYxx9/fHHOOeeUBgy/lxoAqeG2Y6lSCOPXWWedkuzRR8XhyNx3CCFSxl2JSLG0SRMQuQjd649oe4RHPiu5objN4hpExjUSgCJ03SLjiMulQ0J6WPr6ifiOd0SOLtqvauLQVlhG3yDA2rL66qsXF110UTfYe/59TyQqGm9wCbGk6q8nxeq5BnnDnESgSqJ6ic6bk2BloxOBRGCoCFjbqot7q+AoCSHlvkM65G1aZpllhlqneDhXmILMKawptD3qKDI+6tEPORlmA6I+UjFwpxG+OwOPRajXEiSKgF5KJRh0Sy1RvQf5RDR33XXXXl/d9fqeSFTXp+UFiUBDBMKdZycj1QQTdJZEIBFIBMYBgaqFCRlgxWG5YQFxakerI0yGXW91QpzqyYaDALZKQlyPZK+Tw26/16Ym17RrexApp16cdtppxVlnnVW6CvtxgxLUc+VxN9KGdSKN8TuWN6khYIP49pqbq0mf9kWiIpdHLzk4mlQmr5k7CFSTpxFGMo1nSQQSgURgNhCQPodWSNJfMpUI87fWiXKjPUKeaIIlpiTWHqYrr4pBkJggQEGaXNMkVcJs4BnvDLJEmyUdEjIlTVIvJCquFemnX/STJKJN9FDyX/GYcYk67WIYpS8SNYyK5DMTgUQgEUgEEoFRIhALdIjJvVs4v2OukJXIS8h6QovkjDaLeeREHGVdJ/VdsWEmVHdsy9VXXz1fLqpu7QqyRPbBHYeEIWPtiFiQTvklIwWF1A90XYPOYVkS2f++8D/dGpG/TwSGhYDh52NIq+awEM7nJgKJQDsEYoEnOuYiIqJGllid/I4LSDJKuaOcxSexNAH3uOmPxrmHg2Kw8rEk0XGxTPl5L+eg8lY4oFgQ0uKLL962yUG6BL3J2B5BAL1Yv3rBM0lUL2iNybXhTm3nH6/m1Gp1rEwQl2hOEpgx6dg5UI3q2Gs1NmNslzu8FvoPP69eM63HJs2BoTAWTQwyJD+SdAaOUpEHkQaKBoemZrHFFiuIyiWUJo5OAtV71wWBER0ndcSee+5ZnhjSC5Zyd9E06at298XP4zxfh0WL/h4WgUpLVO9jYdbv6DQY2v2u+vMm18x6I7MCU4lAq4kvftZO31C9p901w5wgp7IjslEtEZArSd5DySSlDkCYZPh21ppklUovi37CPD8C8f1yx2266abFUUcdVRLXppjSqq211lotk4FW+8bRLtIfbLvttsUxxxwzVAKVJGrCRnkMNmcQSSAmSkHESNXPe9ddd5VMnVBy4YUXLgecU8OrC41z6phTRcSJdpCITA6ULInAsBGQu0aUDn2CcbfooovOJxAV9SQkWm4bYdFx6GqMfVGd3C4sBELN/Z57IEsiMBMEuhFxBCCtnjNB+P/uDZxZihwjI6npQgstNPMHVwju3nvvXR7I7DzApgRtJhVId95M0BvhvTEYJCsjfLTIyDYrGZoznvyf7/6EE04o9UU+eL5ji5T8GFtvvXU5sGSytROQrE1BqOy2ZICVDXcUg26EsOWrxgCBGFPy3UgCiOgj+fLbOKDURoBuweQnkZ/8L/QTNgeyKhubxrRJV2SUCKm4hobFkRh77bVXjt0x6OtJr0K4imPMtnMpT3o7Z7P+3Qhru7q5bxyjEZNEzeZoavju+KD564kbnRm0xRZblFYki43QzauuuqokRIccckhJhpAq5k++5xBLStHvFG2kysKFaCFefMbS+MuB0vRAx4ZVz8sSgXnkZtVVVy3JkCMkbASOPPLIYo011ijPwTImjVfnliH+0l74ubO3mORZp4xtfzbZZJPSCuU5SBnr1Ezyz2QXJQKJwGgRGDYh6peo9YNCkqh+UBvxPeFLlh9DdIIFxSBxhqEzk/x+7bXXLqNKIiQXY48zg+Q5IZIU3RAHVMYgO++888ojAPyf6M+iNsoBOGIo83UjRiDGkmOiuN78TWMiVNlZWgq9CS0KHUO1rLjiisX1119f/h655+qrnsDu2f7PteeML8dLjCp3z4hhzNclAonAmCKQJGpMO6ZeLdEiSyyxRHkG0T777FPIeyFclACSNkruEhanalbb888/v9ypI1QWMNYqhMo1CsJ18sknF1tuuWV5DT+1QyWTRE3IoJiAagap2W677UoSdOONN5a1JhC98MILy/F4+umnl1mMEX3/NxZpp5zR6XgLrjtWJ9bT6jXcglzRXIOeT6iaY3cCBkVWMRGYIgSSRE1IZ955553FZpttVp4mTnBLG8X1oSBC3HuxYMXfdvo0UMjSueeeWy5c9Wu4AoWa2u3LiRLJyYaRlGxCoM5qDhCBcEVz37GcGo9ID2vU7bffXmy00UaldTWOAYrrWVtdY5PgXgewxtgNomRTIAuyn8sHw1KblqgBdl4+KhFIBLoikCSqK0TjeYG8JUcccUR5mCOXh8MpYwGKv7nvCHfl1mC5ahUFQady6aWXlsTs2muvnXfi93i2Oms1DQhccMEFpYXUODWGt99++3kJV4MEVTcJ1QzFNgTVDMbywCD8IvZoAdMSNQ0jJNuQCEwOAkmiJqevyppaeCwiwsOd50R8yy1Sz/wqfYGdPL0IzRPhbZ1kyYciBQLXyU477VRqVFgELFRpiZqwgTEB1Q1rE3e0KDsRoo6AWGGFFeaNzSBBrE+i8mihjHNpDOo5oyTt4yJkPSVEX2CBBdISNQHjIKuYCEwTAkmiJqg3YxG56aabSoIk1Ft4t6imuqvjsssuK1iZ3OPwRSHgdVfeQQcdVOyxxx4lYaKfsihlSQSGjQC3siCG5ZdfviRIIkmrxZhdaaWVShE6HZSxHCW+AZZVmikJEnfccccyai/Tcwy75/L5iUAiUEcgSdQEjYkgQc5v2mqrrcqa05NUD2OMa2inWJcsLAiShavq6vBzJMsCZSdvMZNw87bbbivuuOOOkqRlSQQGjQBtH/LkbwEN0nXEuAwSJOJUZJ68ZtzWxnJcE+PbKe42EDYAIkxFpyJUEf0XedAGXf98XiKQCCQCVQSSRE3QeIiFRKr8Y489tsyVQwwuI3l9p06ETkvidzRToYeKhYr7gytPtJNwc3l6FNF5RObuTX3JBA2OMa9qjKWzzz67jMRTjjvuuDIJbJ0gSRjr58qpp55a5oWqH11EUC4tAlegv5EmCTu5AW+99dZSK5glEUgEEoFhI5AkatgID/j5VVeHhYQmpF7uueee0pJkR7/++uuXIeT1M8qQJtFMtFROKJcfinVgqaWWKs4444x5uaOanLI94Cbm46YQgbAg0UNxLyPq8pgJaIixGURJUliJOBF/GwAbAdcoLE/SJHDlidyT8sPxDn5uDDvd/ZRTTskNwBSOoWxSIjCOCCSJGsdeaVGnWGgIxSUl5OrYbbfd5tNDxTWi7FZZZZXSynTwwQeXlqa6Hoqr77DDDiszoNNYKdIkcOs5wDHF5RMyMCasmiydrFGhh5IXqlqMYTooBMsm4ZJLLpkX5BAkS86oNddcs9wAcOVxVSP+G2ywQRlhimClPmrCBkZWNxGYUASSRE1IxwUJssvefPPNy1rXM4zHNUS2u+yyS3lNLCqxAMXfrE/O3RP9xH1iEXIwrFBxCQxzEZqQgTFB1RQxKjGsPFFvfetbi0MPPfReeij5objoBE04S2+//fa7V8Sdo2AIz5F/Vq1FFlmk3FDIdxY6wIwunaCBkVVNBCYYgSRRE9Z5d99997ycT8hOq8WCW84Cs/DCCxfLLrts2xbSjjikWDZ0GhLJEIWJZ0kEhoEAku98RqkOuPEEMtSLsegahcWV269VQaRkM+fSY81iUeXKy5IIJAKJwCgRSBI1SrTzXYlAIpAIJAKJQCIwNQgkiZqarsyGJAKJQCKQCCQCicAoEUgSNUq0812JQCKQCCQCiUAiMDUIJImamq7MhiQCiUAikAgkAonAKBFIEjVKtPNdiUAikAgkAolAIjA1CCSJmpquzIYkAolAIpAIJAKJwCgRSBI1SrTzXYlAIpAIJAKJQCIwNQgkiZqarsyGJAKJQCKQCCQCicAoEUgSNUq0812JQCKQCCQCiUAiMDUIJImamq7MhiQCiUAikAgkAonAKBFIEjVKtPNdiUAikAgkAolAIjA1CCSJmpquzIYkAolAIpAIJAKJwCgRSBI1SrTzXYlAIpAIJAKJQCIwNQgkiZqarsyGJAKJQCKQCCQCicAoEUgSNUq0812JQCKQCCQCiUAiMDUIJImamq7MhiQCiUAikAgkAonAKBH4XzbDWPSqPN0qAAAAAElFTkSuQmCC;" vertex="1" parent="1">
          <mxGeometry x="80" y="40" width="570.19" height="100" as="geometry" />
        </mxCell>
        <mxCell id="jAecdOC79fy6qDDTXw9E-2" value="" style="rounded=0;whiteSpace=wrap;html=1;fillColor=none;strokeColor=#FF0000;" vertex="1" parent="1">
          <mxGeometry x="510" y="70" width="130" height="50" as="geometry" />
        </mxCell>
        <mxCell id="jAecdOC79fy6qDDTXw9E-3" value="&lt;div&gt;we should add theta here too?&lt;/div&gt;" style="text;strokeColor=none;align=center;fillColor=none;html=1;verticalAlign=middle;whiteSpace=wrap;rounded=0;" vertex="1" parent="1">
          <mxGeometry x="485" y="120" width="180" height="20" as="geometry" />
        </mxCell>
        <mxCell id="jAecdOC79fy6qDDTXw9E-6" value="=0" style="text;html=1;align=center;verticalAlign=middle;resizable=0;points=[];autosize=1;strokeColor=#d6b656;fillColor=#fff2cc;" vertex="1" parent="1">
          <mxGeometry x="80" y="110" width="40" height="30" as="geometry" />
        </mxCell>
        <mxCell id="jAecdOC79fy6qDDTXw9E-7" value="&lt;div&gt;-20&lt;/div&gt;" style="text;html=1;align=center;verticalAlign=middle;resizable=0;points=[];autosize=1;strokeColor=#d6b656;fillColor=#fff2cc;" vertex="1" parent="1">
          <mxGeometry x="600" y="150" width="40" height="30" as="geometry" />
        </mxCell>
        <mxCell id="jAecdOC79fy6qDDTXw9E-8" value="9.81" style="text;html=1;align=center;verticalAlign=middle;resizable=0;points=[];autosize=1;strokeColor=#d6b656;fillColor=#fff2cc;" vertex="1" parent="1">
          <mxGeometry x="500" y="40" width="50" height="30" as="geometry" />
        </mxCell>
        <mxCell id="jAecdOC79fy6qDDTXw9E-9" value="47.24" style="text;html=1;align=center;verticalAlign=middle;resizable=0;points=[];autosize=1;strokeColor=#d6b656;fillColor=#fff2cc;" vertex="1" parent="1">
          <mxGeometry x="400" y="30" width="50" height="30" as="geometry" />
        </mxCell>
        <mxCell id="jAecdOC79fy6qDDTXw9E-11" value="600" style="text;html=1;align=center;verticalAlign=middle;resizable=0;points=[];autosize=1;strokeColor=#d6b656;fillColor=#fff2cc;" vertex="1" parent="1">
          <mxGeometry x="165" y="120" width="40" height="30" as="geometry" />
        </mxCell>
        <mxCell id="jAecdOC79fy6qDDTXw9E-12" value="600" style="text;html=1;align=center;verticalAlign=middle;resizable=0;points=[];autosize=1;strokeColor=#d6b656;fillColor=#fff2cc;" vertex="1" parent="1">
          <mxGeometry x="310" y="115" width="40" height="30" as="geometry" />
        </mxCell>
        <mxCell id="jAecdOC79fy6qDDTXw9E-13" value="1284.76*2" style="text;html=1;align=center;verticalAlign=middle;resizable=0;points=[];autosize=1;strokeColor=#d6b656;fillColor=#fff2cc;" vertex="1" parent="1">
          <mxGeometry x="250" y="20" width="80" height="30" as="geometry" />
        </mxCell>
        <mxCell id="jAecdOC79fy6qDDTXw9E-14" value="47.24" style="text;html=1;align=center;verticalAlign=middle;resizable=0;points=[];autosize=1;strokeColor=#d6b656;fillColor=#fff2cc;" vertex="1" parent="1">
          <mxGeometry x="20" y="10" width="50" height="30" as="geometry" />
        </mxCell>
        <mxCell id="jAecdOC79fy6qDDTXw9E-16" value="" style="endArrow=classic;html=1;rounded=0;exitX=0.968;exitY=0.547;exitDx=0;exitDy=0;exitPerimeter=0;entryX=-0.052;entryY=0.455;entryDx=0;entryDy=0;entryPerimeter=0;" edge="1" parent="1" source="jAecdOC79fy6qDDTXw9E-14" target="jAecdOC79fy6qDDTXw9E-17">
          <mxGeometry width="50" height="50" relative="1" as="geometry">
            <mxPoint x="100" y="30" as="sourcePoint" />
            <mxPoint x="150" y="25" as="targetPoint" />
          </mxGeometry>
        </mxCell>
        <mxCell id="jAecdOC79fy6qDDTXw9E-17" value="4177" style="text;html=1;align=center;verticalAlign=middle;resizable=0;points=[];autosize=1;strokeColor=#d6b656;fillColor=#fff2cc;" vertex="1" parent="1">
          <mxGeometry x="160" y="10" width="50" height="30" as="geometry" />
        </mxCell>
      </root>
    </mxGraphModel>
  </diagram>
</mxfile>
